<svg version="1.1" xmlns="http://www.w3.org/2000/svg" width="32" height="32" viewBox="0 0 32 32">
<path stroke="#fff" stroke-width="1px" fill="transparent" d="M22.5,31h-13C4.8,31,1,27.2,1,22.5v-13C1,4.8,4.8,1,9.5,1h13C27.2,1,31,4.8,31,9.5v13C31,27.2,27.2,31,22.5,31z M22.5,31
	h-13C4.8,31,1,27.2,1,22.5v-13C1,4.8,4.8,1,9.5,1h13C27.2,1,31,4.8,31,9.5v13C31,27.2,27.2,31,22.5,31z"/>
<path fill="#fff" d="M25.8,7.5c0,0.7-0.6,1.2-1.2,1.2s-1.2-0.6-1.2-1.2s0.6-1.2,1.2-1.2S25.8,6.8,25.8,7.5z"/>
<circle stroke="#fff" stroke-width="1px" fill="transparent" cx="16" cy="16" r="7.2"/>
</svg>