<svg xmlns="http://www.w3.org/2000/svg" width="20.641" height="20" viewBox="0 0 20.641 20">
  <g id="cart_icon" data-name="cart icon" transform="translate(-8157.999 -36)">
    <path id="cart_icon-2" data-name="cart icon" d="M8172.011,54a1.995,1.995,0,1,0,1.99-2A2,2,0,0,0,8172.011,54Zm-10,0a2,2,0,1,0,1.99-2A2,2,0,0,0,8162.01,54Zm13.3-14h-12.149l2.239,4.73.13.27h7.019Zm-13.1-2h16.431l-4.34,7.97a1.99,1.99,0,0,1-1.75,1.03H8165.1l-.9,1.63-.029.12a.253.253,0,0,0,.25.25H8176v2h-12a2.006,2.006,0,0,1-2-2,1.936,1.936,0,0,1,.25-.96l1.351-2.45L8160,38h-2V36h3.271Z" fill="gray"/>
  </g>
</svg>
