<svg xmlns="http://www.w3.org/2000/svg" width="16.001" height="16.001" viewBox="0 0 16.001 16.001">
  <g id="instagram_icon" data-name="instagram icon" transform="translate(-7673 -2287.999)">
    <path id="instagram_icon-2" data-name="instagram icon" d="M7677.709,2304a4.7,4.7,0,0,1-3.381-1.264,4.519,4.519,0,0,1-1.328-3.427v-6.617a4.459,4.459,0,0,1,4.708-4.693h6.642a4.656,4.656,0,0,1,3.381,1.324,4.58,4.58,0,0,1,1.27,3.369v6.617a4.754,4.754,0,0,1-1.33,3.427,4.7,4.7,0,0,1-3.381,1.264Zm-1.936-13.226a3.029,3.029,0,0,0-.774,2.157v6.082a3.047,3.047,0,0,0,.83,2.211,3.119,3.119,0,0,0,2.157.776h6.026a3.022,3.022,0,0,0,2.157-.776,2.835,2.835,0,0,0,.83-2.156v-6.084a3.122,3.122,0,0,0-.774-2.156,2.963,2.963,0,0,0-2.213-.83h-6.083A3.022,3.022,0,0,0,7675.773,2290.774ZM7677,2296a3.99,3.99,0,0,1,3.971-4,4,4,0,1,1,0,8A3.991,3.991,0,0,1,7677,2296Zm2,0a2,2,0,1,0,2-2A2,2,0,0,0,7679,2296Zm5-4a1,1,0,1,1,1,1A.988.988,0,0,1,7684,2292Z" fill="#666"/>
  </g>
</svg>
