<svg xmlns="http://www.w3.org/2000/svg" width="60" height="60.001" viewBox="0 0 60 60.001">
  <g id="large_progress" data-name="large progress" transform="translate(-7577 -1873.999)">
    <path id="placeholder" d="M7607,1934a29.9,29.9,0,1,1,11.677-2.358A29.814,29.814,0,0,1,7607,1934Zm0-56a25.918,25.918,0,1,0,10.12,2.043A25.837,25.837,0,0,0,7607,1878Z" fill="#f5f5f5"/>
    <path id="placeholder-2" data-name="placeholder" d="M7595.322,1931.643A30,30,0,0,1,7606,1874.015v4a25.993,25.993,0,1,0,24.958,36.1q.13-.308.252-.618l3.693,1.539q-.126.318-.259.634a30.035,30.035,0,0,1-39.321,15.966Z" fill="#1875f0"/>
  </g>
</svg>
