<svg xmlns="http://www.w3.org/2000/svg" width="20.731" height="17" viewBox="0 0 20.731 17">
  <g id="twitter_icon" data-name="twitter icon" transform="translate(-8147.692 -140)">
    <path id="twitter_icon-2" data-name="twitter icon" d="M8165.984,142.685a4.307,4.307,0,0,0,1.87-2.374,8.5,8.5,0,0,1-2.7,1.042,4.232,4.232,0,0,0-3.111-1.353,4.289,4.289,0,0,0-3.02,1.268,4.246,4.246,0,0,0-1.233,3.022,4.4,4.4,0,0,0,.108.979,12.039,12.039,0,0,1-8.766-4.483,4.318,4.318,0,0,0,1.317,5.728,4.2,4.2,0,0,1-1.926-.537v.055a4.282,4.282,0,0,0,3.414,4.208,4.237,4.237,0,0,1-1.92.074,4.266,4.266,0,0,0,3.972,2.98,8.487,8.487,0,0,1-5.281,1.836,1.353,1.353,0,0,1-1.015-.059,11.949,11.949,0,0,0,6.516,1.931,12.078,12.078,0,0,0,12.1-12.207c0-.187,0-.371-.013-.556a8.657,8.657,0,0,0,2.125-2.227A8.432,8.432,0,0,1,8165.984,142.685Z" fill="#00a2f9"/>
  </g>
</svg>
