<svg xmlns="http://www.w3.org/2000/svg" width="13.999" height="11.76" viewBox="0 0 13.999 11.76">
  <g id="twitter_icon" data-name="twitter icon" transform="translate(-7604 -2290.143)">
    <path id="twitter_icon-2" data-name="twitter icon" d="M7618,2291.533a5.582,5.582,0,0,1-1.647.467,2.962,2.962,0,0,0,1.263-1.642,5.647,5.647,0,0,1-1.823.721,2.828,2.828,0,0,0-2.1-.936,2.862,2.862,0,0,0-2.039.877,2.976,2.976,0,0,0-.833,2.091,3.189,3.189,0,0,0,.073.677,8.066,8.066,0,0,1-5.919-3.1,3.032,3.032,0,0,0,.889,3.962,2.782,2.782,0,0,1-1.3-.371v.038a2.948,2.948,0,0,0,2.306,2.911,2.8,2.8,0,0,1-1.3.051,2.89,2.89,0,0,0,2.683,2.061,5.647,5.647,0,0,1-3.566,1.27.894.894,0,0,1-.686-.041,7.93,7.93,0,0,0,4.4,1.335,8.1,8.1,0,0,0,5.816-2.48,8.429,8.429,0,0,0,2.356-5.964c0-.129,0-.257-.009-.384A5.945,5.945,0,0,0,7618,2291.533Z" fill="#666"/>
  </g>
</svg>
