<?xml version="1.0" encoding="utf-8"?>
<!-- Generator: Adobe Illustrator 21.0.0, SVG Export Plug-In . SVG Version: 6.00 Build 0)  -->
<svg version="1.1" id="Capa_1" xmlns="http://www.w3.org/2000/svg" xmlns:xlink="http://www.w3.org/1999/xlink" x="0px" y="0px"
	 viewBox="0 0 512 512" style="enable-background:new 0 0 512 512;" xml:space="preserve">
<style type="text/css">
	.st0{fill:#F2F2F2;}
	.st1{fill:#E5E5E5;}
	.st2{fill:#00C3FF;}
	.st3{fill:#87E694;}
	.st4{fill:#FFAB15;}
	.st5{fill:#CCCCCC;}
</style>
<g>
	<path class="st0" d="M407,512H105C47.1,512,0,464.9,0,407V105C0,47.1,47.1,0,105,0h302c57.9,0,105,47.1,105,105v302
		C512,464.9,464.9,512,407,512z"/>
	<path class="st1" d="M407,0H256v512h151c57.9,0,105-47.1,105-105V105C512,47.1,464.9,0,407,0z"/>
	<path class="st2" d="M95,301c-24.8,0-45-20.2-45-45s20.2-45,45-45s45,20.2,45,45S119.8,301,95,301z M95,241c-8.3,0-15,6.7-15,15
		s6.7,15,15,15s15-6.7,15-15S103.3,241,95,241z"/>
	<path class="st3" d="M95,421c-24.8,0-45-20.2-45-45s20.2-45,45-45s45,20.2,45,45S119.8,421,95,421z M95,361c-8.3,0-15,6.7-15,15
		s6.7,15,15,15s15-6.7,15-15S103.3,361,95,361z"/>
	<path class="st4" d="M95,181c-24.8,0-45-20.2-45-45s20.2-45,45-45s45,20.2,45,45S119.8,181,95,181z M95,121c-8.3,0-15,6.7-15,15
		s6.7,15,15,15s15-6.7,15-15S103.3,121,95,121z"/>
	<g>
		<rect x="170" y="301" class="st1" width="342" height="30"/>
		<path class="st1" d="M510.9,422H170v30h331.9C506.3,442.7,509.4,432.6,510.9,422z"/>
		<path class="st1" d="M170,60v30h340.9c-1.5-10.6-4.6-20.7-9.1-30H170z"/>
		<rect x="170" y="181" class="st1" width="342" height="30"/>
	</g>
	<g>
		<path class="st5" d="M256,452h245.9c4.4-9.3,7.5-19.4,9.1-30H256V452z"/>
		<path class="st5" d="M256,90h254.9c-1.5-10.6-4.6-20.7-9.1-30H256V90z"/>
		<rect x="256" y="301" class="st5" width="256" height="30"/>
		<rect x="256" y="181" class="st5" width="256" height="30"/>
	</g>
</g>
</svg>
