<?xml version="1.0" encoding="utf-8"?>
<!-- Generator: Adobe Illustrator 21.0.0, SVG Export Plug-In . SVG Version: 6.00 Build 0)  -->
<svg version="1.1"
	 id="svg4712" xmlns:cc="http://creativecommons.org/ns#" xmlns:dc="http://purl.org/dc/elements/1.1/" xmlns:rdf="http://www.w3.org/1999/02/22-rdf-syntax-ns#" xmlns:svg="http://www.w3.org/2000/svg"
	 xmlns="http://www.w3.org/2000/svg" xmlns:xlink="http://www.w3.org/1999/xlink" x="0px" y="0px" viewBox="0 0 70 125"
	 style="enable-background:new 0 0 70 125;" xml:space="preserve">
<style type="text/css">
	.st0{fill:#E6E6E6;}
	.st1{fill:#FFFFFF;}
	.st2{fill:url(#rect3551_1_);}
	.st3{fill:#3E3F3F;}
	.st4{fill:url(#rect3541_1_);}
	.st5{fill:url(#path3579_1_);}
</style>
<g id="layer1">
	<path id="rect3531" class="st0" d="M17.3,8h35.4c4.5,0,8.1,3.6,8.1,8.1v92.7c0,4.5-3.6,8.1-8.1,8.1H17.3c-4.5,0-8.1-3.6-8.1-8.1
		V16.1C9.2,11.7,12.8,8,17.3,8z"/>
	<path id="rect3533" class="st1" d="M17.7,8.7h34.6c4.4,0,7.9,3.5,7.9,7.9v91.9c0,4.4-3.5,7.9-7.9,7.9H17.7c-4.4,0-7.9-3.5-7.9-7.9
		V16.6C9.8,12.2,13.3,8.7,17.7,8.7z"/>
	
		<linearGradient id="rect3551_1_" gradientUnits="userSpaceOnUse" x1="1791.108" y1="593.3194" x2="1801.0948" y2="680.3824" gradientTransform="matrix(0.1561 0 0 0.7675 -245.0687 -422.8058)">
		<stop  offset="0" style="stop-color:#161E3E"/>
		<stop  offset="0.4771" style="stop-color:#1A506A"/>
		<stop  offset="1" style="stop-color:#3F95B7"/>
	</linearGradient>
	<rect id="rect3551" x="13.1" y="23.8" class="st2" width="43.9" height="64.5"/>
	<path id="path3535" class="st3" d="M36.1,13.5c0,0.6-0.5,1-1,1c-0.6,0-1-0.5-1-1s0.5-1,1-1C35.6,12.5,36.1,13,36.1,13.5z"/>
	<path id="path3537" class="st3" d="M28.8,17.6c0,0.4-0.3,0.7-0.7,0.7s-0.7-0.3-0.7-0.7s0.3-0.7,0.7-0.7S28.8,17.2,28.8,17.6z"/>
	<path id="rect3539" class="st3" d="M31.3,17.1h7.5c0.3,0,0.5,0.2,0.5,0.5l0,0c0,0.3-0.2,0.5-0.5,0.5h-7.5c-0.3,0-0.5-0.2-0.5-0.5
		l0,0C30.8,17.3,31,17.1,31.3,17.1z"/>
	
		<linearGradient id="rect3541_1_" gradientUnits="userSpaceOnUse" x1="1658.926" y1="-1982.7638" x2="1922.926" y2="-1905.7638" gradientTransform="matrix(0.1561 0 0 -0.1561 -245.0687 -208.5266)">
		<stop  offset="0" style="stop-color:#39B0D5"/>
		<stop  offset="1" style="stop-color:#5FC1D9"/>
	</linearGradient>
	<rect id="rect3541" x="13.1" y="88.3" class="st4" width="43.9" height="13.1"/>
	
		<linearGradient id="path3579_1_" gradientUnits="userSpaceOnUse" x1="1792.5345" y1="-2027.0907" x2="1826.2467" y2="-2077.356" gradientTransform="matrix(0.1548 0 0 -0.1548 -244.9848 -208.4615)">
		<stop  offset="0" style="stop-color:#999999"/>
		<stop  offset="1" style="stop-color:#F2F2F2"/>
	</linearGradient>
	<path id="path3579" class="st5" d="M39.6,109.1c0,2.6-2.1,4.6-4.6,4.6s-4.6-2.1-4.6-4.6c0-2.6,2.1-4.6,4.6-4.6
		S39.6,106.5,39.6,109.1z"/>
	<path id="path3581" class="st1" d="M38.9,109.1c0,2.2-1.7,3.9-3.9,3.9s-3.9-1.7-3.9-3.9s1.7-3.9,3.9-3.9S38.9,106.9,38.9,109.1z"/>
</g>
</svg>
