<?xml version="1.0" encoding="iso-8859-1"?>
<svg fill="goldenrod" version="1.1" id="Layer_1" xmlns="http://www.w3.org/2000/svg" xmlns:xlink="http://www.w3.org/1999/xlink" x="0px" y="0px"
	 viewBox="0 0 512 512" style="enable-background:new 0 0 512 512;" xml:space="preserve">
		<path d="M501.937,261.061l-150.154-57.577v254.193l138.932,53.276c1.816,0.696,3.719,1.039,5.61,1.039
			c3.128,0,6.231-0.937,8.881-2.758c4.253-2.924,6.794-7.754,6.794-12.915V275.696C512,269.205,507.997,263.385,501.937,261.061z"/>
		<path d="M21.285,199.624c-4.819-1.849-10.239-1.206-14.491,1.72C2.541,204.267,0,209.097,0,214.259v220.622
			c0,6.492,4.002,12.31,10.062,14.634l150.155,57.579V252.899L21.285,199.624z"/>
		<path d="M287.389,329.675c-8.641,7.748-19.788,12.012-31.389,12.012c-11.6,0-22.747-4.264-31.385-12.008
			c-2.514-2.254-16.135-14.694-33.052-34.318v211.733l128.873-49.418V295.356C303.525,314.973,289.905,327.419,287.389,329.675z"/>
		<path d="M338.056,39.653C317.61,14.46,287.701,0.008,256,0.008c-31.7,0-61.608,14.452-82.054,39.643
			c-39.536,48.715-39.038,110.954,1.439,179.993c29.092,49.617,68.492,85.203,70.155,86.694c2.978,2.669,6.718,4.002,10.461,4.002
			c3.743,0,7.485-1.333,10.461-4.002c1.663-1.491,41.062-37.077,70.153-86.697C377.089,150.607,377.59,88.366,338.056,39.653z
			 M296.97,172.206c-10.937,10.933-25.486,16.952-40.972,16.952c-15.485,0-30.031-6.018-40.958-16.946
			c-10.932-10.93-16.953-25.48-16.953-40.969c0-15.489,6.022-30.04,16.953-40.968c10.922-10.928,25.469-16.95,40.956-16.95
			c15.483,0,30.034,6.019,40.97,16.948C319.551,112.864,319.551,149.616,296.97,172.206z"/>
</svg>
