<svg height="512" viewBox="0 0 59 60" width="512" xmlns="http://www.w3.org/2000/svg"><g id="Page-1" fill="none" fill-rule="evenodd"><g id="043---Eating-Breakfast" fill-rule="nonzero" transform="translate(-1)"><g id="Icons_copy" transform="translate(2)"><path id="Shape" d="m11.77 56c.0054118.0331137.0054118.0668863 0 .1-2.27 3.82-8.91 3.9-10.57-.9-.47123664-1.68979.0067567-3.5023408 1.25-4.74.41-.46.27-1 .43-1.53.13803927-.4596923.45023882-.8472504.87-1.08.13518323-.0754364.2797784-.1326019.43-.17.58896914-.1598079 1.21867324-.0419686 1.71.32.36.26.53.65 1 .69.38405927-.0306298.76518742-.0908079 1.14-.18h.34c.67122453.0456909 1.29570345.3599892 1.7323004.8718615.4365969.5118722.6484574 1.1781098.5876996 1.8481385-.027274.2965447.0790369.5898162.29.8.0921504.089951.200807.1612569.32.21 1.6.7 1.14 2.57.47 3.76z" fill="#ffe0b2"/><path id="Shape" d="m54.79 55.2c-1.65 4.82-8.29 4.72-10.52.9-.0225895-.0300275-.0395317-.0639118-.05-.1-.67-1.19-1.13-3.06.45-3.74.1271696-.0623217.2396515-.1509438.33-.26.2045114-.209628.3068505-.4983703.28-.79-.0607996-.6684119.149717-1.3331983.5841818-1.8447758.4344647-.5115775 1.0563833-.8269747 1.7258182-.8752242h.35c.3748126.0891921.7559407.1493702 1.14.18.49 0 .66-.43 1-.69.4855432-.3658102 1.11111-.4909236 1.7-.34.1539711.0355636.3021152.0928011.44.17.4197612.2327496.7319607.6203077.87 1.08.16.51 0 1.07.43 1.53 1.2649723 1.2415658 1.7519131 3.0743036 1.27 4.78z" fill="#ffe0b2"/><path id="Shape" d="m53.54 50.46c-.4-.46-.27-1-.43-1.53-.1380393-.4596923-.4502388-.8472504-.87-1.08-.1378848-.0771989-.2860289-.1344364-.44-.17-.58889-.1509236-1.2144568-.0258102-1.7.34-.1134949.0888537-.2204386.1857714-.32.29.1505383.1823962.2627727.3932609.33.62.16.51 0 1.07.43 1.53 1.2432433 1.2376592 1.7212366 3.05021 1.25 4.74-.5835533 1.7650122-2.0476301 3.0963359-3.86 3.51 2.8551117.8285934 5.8616384-.7097315 6.86-3.51.4712366-1.68979-.0067567-3.5023408-1.25-4.74z" fill="#dfc49c"/><path id="Shape" d="m45 52c-.0942085.0946302-.206415.1694345-.33.22-1.58.68-1.12 2.55-.45 3.74h-32.45c.67-1.19 1.13-3.06-.45-3.74-.119193-.0487431-.2278496-.120049-.32-.21-.0258325-5.1547807 3.8709871-9.4845802 9-10 0 3.84 3.6 7 8 7s8-3.11 8-7c5.125183.5150584 9.0206645 4.8390429 9 9.99z" fill="#ff5722"/><path id="Shape" d="m36 42.05c.0002905.2578455-.0197718.5153118-.06.77 3.6727014 1.5743937 6.0555617 5.1840732 6.06 9.18-.0942085.0946302-.206415.1694345-.33.22-1.58.68-1.12 2.55-.45 3.74h3c-.67-1.19-1.13-3.06.45-3.74.123585-.0505655.2357915-.1253698.33-.22.0000645-5.1356533-3.8900895-9.4364347-9-9.95z" fill="#d84315"/><path id="Shape" d="m36 42.05c0 3.84-3.6 7-8 7s-8-3.11-8-7h1 4c-.08-2.29-.3-3.16-.52-5.25 2.3549296.3333333 4.7450704.3333333 7.1 0-.22 2.09-.44 3-.52 5.25h4c.28-.05.61-.05.94 0z" fill="#ffe0b2"/><path id="Shape" d="m39 12.92c-10.78-.54-15-3.92-15-3.92s-1 5-10 5v8c-.0176825 1.2782077.0290434 2.5564946.14 3.83.46 4.46 2.37 9.73 10.31 10.92.64.1 1.34.16 2.07.2h.55l.93.05c1.1878896.0046365 2.3744843-.0789265 3.55-.25 7.94-1.19 9.85-6.47 10.31-10.93.1109425-1.2701647.1576686-2.5451218.14-3.82v-9c-1 0-2 0-3-.08zm-4 6.08c1.1045695 0 2 .8954305 2 2s-.8954305 2-2 2-2-.8954305-2-2 .8954305-2 2-2zm-16 2c0-1.1045695.8954305-2 2-2s2 .8954305 2 2-.8954305 2-2 2-2-.8954305-2-2zm3 8h12c-1.0092521 2.4222051-3.3759445 4-6 4s-4.9907479-1.5777949-6-4z" fill="#ffe0b2"/><path id="Shape" d="m42 13v9c.0176686 1.2748782-.0290575 2.5498353-.14 3.82-.46 4.46-2.37 9.74-10.31 10.93-1.1755157.1710735-2.3621104.2546365-3.55.25h-.94l-.55.0001828c.72-.0001828 1.41-.1001828 2.05-.2001828 7.94-1.19 9.85-6.47 10.31-10.93.109299-1.2869391.152689-2.5786272.13-3.87v-9.08c1 .08 2 .08 3 .08z" fill="#dfc49c"/><path id="Shape" d="m34 29c-1.0092521 2.4222051-3.3759445 4-6 4s-4.9907479-1.5777949-6-4z" fill="#f5f5f5"/><path id="Shape" d="m42 11.5v1.5c-13 0-18-4-18-4s-1 5-10 5v-4.5c0-3.59 5-8.5 14-8.5 3.5827547-.13574207 7.1222617.81975047 10.15 2.74 1.9290747 1.17450971 3.3136201 3.06612242 3.85 5.26v1.25z" fill="#a0522d"/><path id="Shape" d="m42 10.25c0-.58 0-1.17 0-1.25-.5266834-2.18715077-1.8960628-4.07768512-3.81-5.26-3.0390914-1.92810982-6.5937563-2.88392747-10.19-2.74-.5 0-1 0-1.46.05 3.0605425.10102026 6.0362981 1.03072788 8.61 2.69 1.9290747 1.17450971 3.3136201 3.06612242 3.85 5.26v1.25 1.25 1.42c1 .05 1.94.08 3 .08v-1.5c0-.08 0-.67 0-1.25z" fill="#783e22"/><path id="Shape" d="m14.14 25.83c-.369417.1131074-.7536556.1704062-1.14.17-2.209139 0-4-1.790861-4-4s1.790861-4 4-4c.3377349-.0030147.6742616.0407338 1 .13v3.87c-.0176825 1.2782077.0290434 2.5564946.14 3.83z" fill="#dfc49c"/><path id="Shape" d="m47 22c0 2.209139-1.790861 4-4 4-.3872342.0020503-.772236-.0587394-1.14-.18.1109425-1.2701647.1576686-2.5451218.14-3.82v-3.87c.3257384-.0892662.6622651-.1330147 1-.13 1.060866 0 2.0782816.4214274 2.8284271 1.1715729s1.1715729 1.7675611 1.1715729 2.8284271z" fill="#dfc49c"/><circle id="Oval" cx="21" cy="21" fill="#02a9f4" r="2"/><circle id="Oval" cx="35" cy="21" fill="#02a9f4" r="2"/><g fill="#9e9e9e"><path id="Shape" d="m8.39 48.53h-.34c-.37481258.0891921-.75594073.1493702-1.14.18-.49 0-.66-.43-1-.69-.48800524-.3688887-1.11799866-.4941505-1.71-.34l-1.2-6.75c-.05822727-.2755789-.22374033-.5166523-.46-.67-1.30895218-.9985968-2.17420176-2.4705981-2.41-4.1-.53-3 .8-5.73 3-6.12s4.34 1.74 4.87 4.73c.33075331 1.6125009.02241557 3.2904319-.86 4.68-.17580782.2229932-.24852206.5102144-.2.79z"/><path id="Shape" d="m56.13 34.65-.52 3c-.2207587 1.2460433-1.0181188 2.3141349-2.15 2.88-.2554623.120953-.440218.3537452-.5.63l-1.16 6.52c-.58889-.1509236-1.2144568-.0258102-1.7.34-.36.26-.53.65-1 .69-.3840593-.0306298-.7651874-.0908079-1.14-.18h-.35l1.39-8.06c.0483248-.3100007-.0516418-.6247104-.27-.85-.8446079-.9157717-1.2143162-2.17278-1-3.4l.52-3 3.94.7z"/></g></g><g id="Layer_2" fill="#000"><path id="Shape" d="m36.94 29.35c.1149219-.3075748.0715317-.6519686-.1160904-.9214259s-.4955681-.429642-.8239096-.4285741h-12c-.3272236.0005385-.6334827.1611378-.82.43-.1884492.2684324-.2332898.6122104-.12.92 1.1541047 2.8166122 3.8961108 4.6563404 6.94 4.6563404s5.7858953-1.8397282 6.94-4.6563404zm-6.94 2.65c-1.6477068.0301662-3.2153491-.7092877-4.24-2h8.48c-1.0246509 1.2907123-2.5922932 2.0301662-4.24 2z"/><path id="Shape" d="m27 23c0-.5522847-.4477153-1-1-1h-.18c.4519845-1.2453025.0336359-2.6396392-1.0292461-3.4304301-1.0628819-.790791-2.5186259-.790791-3.5815078 0-1.062882.7907909-1.4812306 2.1851276-1.0292461 3.4304301h-.18c-.5522847 0-1 .4477153-1 1s.4477153 1 1 1h6c.5522847 0 1-.4477153 1-1zm-5-2c0-.5522847.4477153-1 1-1s1 .4477153 1 1-.4477153 1-1 1-1-.4477153-1-1z"/><path id="Shape" d="m34 24h6c.5522847 0 1-.4477153 1-1s-.4477153-1-1-1h-.18c.4519845-1.2453025.0336359-2.6396392-1.0292461-3.4304301-1.0628819-.790791-2.5186259-.790791-3.5815078 0-1.062882.7907909-1.4812306 2.1851276-1.0292461 3.4304301h-.18c-.5522847 0-1 .4477153-1 1s.4477153 1 1 1zm2-3c0-.5522847.4477153-1 1-1s1 .4477153 1 1-.4477153 1-1 1-1-.4477153-1-1z"/><path id="Shape" d="m29 26h2c.5522847 0 1-.4477153 1-1s-.4477153-1-1-1h-2c-.5522847 0-1 .4477153-1 1s.4477153 1 1 1z"/><path id="Shape" d="m59.17 28.74c-.5405389-.0907907-1.0534307.2704635-1.15.81l-.7 3.94-2-.35.7-3.93c.046332-.2627221-.014233-.5330659-.1682258-.7509094-.1539928-.2178434-.3886458-.365125-.6517742-.4090906-.5405389-.0907907-1.0534307.2704635-1.15.81l-.7 3.94-2-.35.7-3.94c.04653-.2612525-.0126875-.5302868-.1646117-.7478573-.1519243-.2175706-.3840963-.3658348-.6453883-.4121427-.2612525-.04653-.5302868.0126875-.7478573.1646117-.2175706.1519243-.3658348.3840963-.4121427.6453883l-.87 4.91-.52 3c-.2735106 1.5358715.2148312 3.1090029 1.31 4.22l-1.28 7.41c-.4872988.1537883-.9346184.4133019-1.31.76-1.3727864-4.0923473-5.0235402-6.9949316-9.32-7.41-.36 0-.72 0-1.09 0h-2.92c.06-.9.15-1.57.25-2.33 0-.33.08-.69.13-1.07 7.31-1.45 9.54-6.37 10.24-10.65h.3c2.7614237 0 5-2.2385763 5-5s-2.2385763-5-5-5v-5.5s0-2.36 0-2.66c-.64-3.55-5.1-8.84-15-8.84s-15 5.52-15 9.5v7.5c-2.7614237 0-5 2.2385763-5 5s2.2385763 5 5 5h.3c.69 4.3 2.93 9.22 10.24 10.62.05.38.09.74.13 1.07.1.76.19 1.43.25 2.33h-2.92c-.37 0-.73 0-1.1 0-4.2926989.4188185-7.9386845 3.3207254-9.31 7.41-.3863179-.3421474-.8390962-.6008779-1.33-.76l-1.32-7.67c1.0303547-1.6096794 1.3893217-3.5588701 1-5.43-.2810508-1.8893147-1.28946875-3.5939358-2.81-4.75-.93134089-.6932437-2.10435748-.9783769-3.25-.79-2.75.49-4.42 3.69-3.79 7.27.2857606 1.9286809 1.33424925 3.6617498 2.91 4.81l1.06 6c-.54267436.3613564-.94504667.8978528-1.14 1.52-.06645474.2420416-.10998003.4898009-.13.74.00645151.1453963-.02453795.2900138-.09.42-1.48585532 1.5062622-2.03722197 3.700242-1.44 5.73.81020482 2.4343574 3.0017742 4.1450428 5.56 4.34.25312046.0146871.50687954.0146871.76 0 2.2627586.0409971 4.4025812-1.027047 5.73-2.86h31.37c1.3229736 1.8483296 3.4672089 2.931654 5.74 2.9.2497767.0149417.5002233.0149417.75 0 2.5582258-.1949572 4.7497952-1.9056426 5.56-4.34.597222-2.029758.0458553-4.2237378-1.44-5.73-.0654621-.1299862-.0964515-.2746037-.09-.42-.0192405-.2470139-.0627844-.4915296-.13-.73-.1956809-.6298736-.6016328-1.1734961-1.15-1.54l1-5.72c1.4119686-.7091418 2.4056627-2.0439549 2.68-3.6l.52-2.94.88-4.98c.0461578-.264205-.0157505-.5358776-.1718203-.7539992-.1560698-.2181217-.3932178-.3644074-.6581797-.4060008zm-11.17-6.74c0 1.6568542-1.3431458 3-3 3h-.08c.08-1.13.08-2.16.08-3v-3c1.6568542 0 3 1.3431458 3 3zm-18-20c8.6 0 12.52 4.39 13 7.11v2.39.5c-11.65-.2-16.33-3.73-16.38-3.76-.2684139-.21240619-.6268197-.27276927-.95-.16-.3289304.11365237-.5751181.39014012-.65.73-.02.19-1.02 3.83-8.02 4.19v-3.5c0-3.07 4.63-7.5 13-7.5zm-15 23c-1.6568542 0-2.9999999-1.3431458-2.9999999-3s1.3431457-3 2.9999999-3v3c0 .83 0 1.86.08 3zm2-3v-7c6.14-.25 8.56-2.86 9.46-4.49 2.07 1.13 7.2 3.33 16.54 3.49v8c0 5.24 0 14-13 14s-13-8.76-13-14zm9 22c0 .5522847.4477153 1 1 1s1-.4477153 1-1c.0283183-1.8692532-.0853418-3.7379583-.34-5.59 0-.16-.05-.34-.07-.52.76.07 1.56.11 2.41.11s1.65 0 2.41-.11c0 .18 0 .36-.07.52-.2546582 1.8520417-.3683183 3.7207468-.34 5.59 0 .5522847.4477153 1 1 1s1-.4477153 1-1c0-.36 0-.69 0-1h2.88c-.55 2.83-3.43 5-6.89 5s-6.34-2.17-6.89-5h2.9zm-4.89-.8c.66 3.8 4.39 6.8 8.89 6.8s8.23-3 8.89-6.8c3.9742377.8472638 6.8877715 4.2525334 7.11 8.31-.5947592.312342-1.0408774.8484034-1.24 1.49-.187278.6535143-.187278 1.3464857 0 2h-2.76v-3c0-.5522847-.4477153-1-1-1s-1 .4477153-1 1v3h-20v-3c0-.5522847-.4477153-1-1-1s-1 .4477153-1 1v3h-2.76c.187278-.6535143.187278-1.3464857 0-2-.2085424-.6364331-.6520294-1.1693327-1.24-1.49.2222285-4.0574666 3.1357623-7.4627362 7.11-8.31zm-18.01-7.2c-.42-2.41.57-4.68 2.17-5 .6192657-.0781795 1.24371201.0986868 1.73.49 1.08636498.8492812 1.8028561 2.0852284 2 3.45.27617012 1.351336.02577472 2.7571274-.7 3.93-.32260579.4439874-.4556923.997915-.37 1.54l1.28 7.27c-.09 0-.17 0-.16.06l-.15-.15c-.12574018-.1281775-.25933145-.2484096-.4-.36-.43365183-.3354285-.95403528-.5401127-1.5-.59l-1-5.88c-.09624766-.546167-.41495485-1.0278494-.88-1.33-1.09023429-.8402604-1.81389783-2.0690554-2.02-3.43zm9.76 19.6c-1.0426944 1.6351377-2.93686309 2.5198625-4.86 2.27-1.78173105-.1155081-3.31399293-1.303308-3.87-3-.36764544-1.3357741.01475741-2.7659607 1-3.74.36095155-.4374279.56512783-.9830714.58-1.55.00537115-.1219845.02551827-.2428672.06-.36.05801167-.2095446.19881458-.3864508.39-.49.13748369-.0761987.29286783-.1141815.45-.11.22437375-.0015399.44274585.0724249.62.21.06681043.0489916.12727374.1060958.18.17.34692561.3952019.82778354.6480976 1.35.71.33759834.0135474.6751917-.0269638 1-.12l.31-.06c.436801-.0279875.8640373.136208 1.1696674.4495269s.459162.7445021.4203326 1.1804731c-.0687779.8575175.4185067 1.6629466 1.21 2 .1981098.0606298.3546148.2134085.42.41.11004.7064908-.0429618 1.4288016-.43 2.03zm43-.73c-.5560071 1.696692-2.088269 2.8844919-3.87 3-1.9129731.237667-3.7921938-.6455278-4.83-2.27-.3999299-.5854254-.5740223-1.2960064-.49-2 .0647628-.1934288.2165712-.3452372.41-.41.7954259-.3338033 1.287202-1.1399937 1.22-2-.0408037-.4438597.1165802-.8830704.43-1.2.2812471-.2823194.6615464-.4437672 1.06-.45h.1l.31.06c.3248083.0930362.6624017.1335474 1 .12.5111051-.0684516.9782579-.3252074 1.31-.72.0606323-.0729747.1313412-.1369494.21-.19.2948806-.2040302.6764326-.2345544 1-.08.1914044.1057935.3346674.2812907.4.49.0264343.1184396.0431565.2388394.05.36.0192201.5678223.2267843 1.1131179.59 1.55 1.0101722.9594327 1.4232056 2.3897523 1.08 3.74zm.79-17.44c-.1735691.9421518-.7866662 1.7447517-1.65 2.16-.5413298.2810981-.9137215.8061704-1 1.41l-1 5.68c-.5284272.0524419-1.031179.2535426-1.45.58-.1553697.1162249-.302397.2432031-.44.38 0 0-.11.12-.08.12-.0790934.017033-.1609066.017033-.24 0l1.24-7c.0992603-.6183942-.096897-1.2475779-.53-1.7-.6370476-.6850199-.9180918-1.6279974-.76-2.55l.35-2 5.91 1z"/></g></g></g></svg>